<svg width="24" height="24" viewBox="0 0 24 24" fill="none" xmlns="http://www.w3.org/2000/svg">
<g clip-path="url(#clip0_711_14857)">
<path fill-rule="evenodd" clip-rule="evenodd" d="M3.30403 5.9393L11.0034 12.7831C11.5717 13.2883 12.4281 13.2883 12.9965 12.7831L20.6958 5.9393C20.8885 6.24676 20.9999 6.61036 20.9999 6.99999V17C20.9999 18.1046 20.1045 19 18.9999 19H4.99991C3.89534 19 2.99991 18.1046 2.99991 17V6.99999C2.99991 6.61036 3.11132 6.24676 3.30403 5.9393ZM4.03266 5.24901C4.31931 5.09033 4.64906 4.99999 4.99991 4.99999H18.9999C19.3508 4.99999 19.6805 5.09033 19.9672 5.24901L12.3321 12.0357C12.1426 12.2041 11.8572 12.2041 11.6677 12.0357L4.03266 5.24901ZM4.03266 5.24901C3.73518 5.41369 3.48411 5.65198 3.30403 5.9393L2.66772 5.37369L3.33209 4.62628L4.03266 5.24901ZM19.9672 5.24901L20.6677 4.62628L21.3321 5.37369L20.6958 5.9393C20.5157 5.65198 20.2646 5.41369 19.9672 5.24901Z" fill="#B7B7B7"/>
</g>
<defs>
<clipPath id="clip0_711_14857">
<rect x="3" y="5" width="18" height="14" rx="2" fill="white"/>
</clipPath>
</defs>
</svg>
