<svg width="24" height="24" viewBox="0 0 24 24" fill="none" xmlns="http://www.w3.org/2000/svg">
<path fill-rule="evenodd" clip-rule="evenodd" d="M12.0001 11C14.2092 11 16.0001 9.20914 16.0001 7C16.0001 4.79086 14.2092 3 12.0001 3C9.79092 3 8.00006 4.79086 8.00006 7C8.00006 9.20914 9.79092 11 12.0001 11ZM12.0001 12C8.69284 12 5.80723 13.6236 4.27471 16.0331C4.09333 16.3183 4.09333 16.6817 4.27471 16.9669C5.80723 19.3764 8.69284 21 12.0001 21C15.3073 21 18.1929 19.3764 19.7254 16.9669C19.9068 16.6817 19.9068 16.3183 19.7254 16.0331C18.1929 13.6236 15.3073 12 12.0001 12Z" fill="#B7B7B7"/>
</svg>
