<svg width="192" height="192" viewBox="0 0 192 192" fill="none" xmlns="http://www.w3.org/2000/svg">
<path fill-rule="evenodd" clip-rule="evenodd" d="M97.28 175.99C140.872 175.306 176 139.755 176 96C176 51.8172 140.183 16 96 16C51.8172 16 16 51.8172 16 96C16 140.038 51.5825 175.765 95.5652 175.999C95.7253 176 95.8854 176 96.0457 176C96.4581 176 96.8695 175.997 97.28 175.99ZM40.2888 141.613C40.4641 141.143 40.693 140.687 40.9754 140.255C52.0225 123.355 72.5488 112 96.0457 112C119.543 112 140.069 123.355 151.116 140.255C151.383 140.664 151.602 141.093 151.774 141.537C161.916 129.129 168 113.275 168 96C168 56.2355 135.765 24 96 24C56.2355 24 24 56.2355 24 96C24 113.311 30.109 129.195 40.2888 141.613ZM124.7 76.4444C124.7 92.1539 111.87 104.889 96.0433 104.889C80.2167 104.889 67.3868 92.1539 67.3868 76.4444C67.3868 60.735 80.2167 48 96.0433 48C111.87 48 124.7 60.735 124.7 76.4444Z" fill="#E6E5EE"/>
</svg>
