<svg width="48" height="48" viewBox="0 0 48 48" fill="none" xmlns="http://www.w3.org/2000/svg">
<circle cx="24" cy="24" r="23.75" stroke="url(#paint0_linear_457_11409)" stroke-width="0.5" stroke-dasharray="1 1"/>
<g clip-path="url(#clip0_457_11409)">
<path fill-rule="evenodd" clip-rule="evenodd" d="M15.304 17.9393L23.0034 24.7831C23.5717 25.2883 24.4281 25.2883 24.9965 24.7831L32.6958 17.9393C32.8885 18.2468 32.9999 18.6104 32.9999 19V29C32.9999 30.1046 32.1045 31 30.9999 31H16.9999C15.8953 31 14.9999 30.1046 14.9999 29V19C14.9999 18.6104 15.1113 18.2468 15.304 17.9393ZM16.0327 17.249C16.3193 17.0903 16.6491 17 16.9999 17H30.9999C31.3508 17 31.6805 17.0903 31.9672 17.249L24.3321 24.0357C24.1426 24.2041 23.8572 24.2041 23.6677 24.0357L16.0327 17.249ZM16.0327 17.249C15.7352 17.4137 15.4841 17.652 15.304 17.9393L14.6677 17.3737L15.3321 16.6263L16.0327 17.249ZM31.9672 17.249L32.6677 16.6263L33.3321 17.3737L32.6958 17.9393C32.5157 17.652 32.2646 17.4137 31.9672 17.249Z" fill="url(#paint1_linear_457_11409)"/>
</g>
<defs>
<linearGradient id="paint0_linear_457_11409" x1="24" y1="0" x2="24" y2="48" gradientUnits="userSpaceOnUse">
<stop stop-color="#0A71EA"/>
<stop offset="1" stop-color="#003A7C"/>
</linearGradient>
<linearGradient id="paint1_linear_457_11409" x1="23.9999" y1="16.6263" x2="23.9999" y2="31" gradientUnits="userSpaceOnUse">
<stop stop-color="#0A71EA"/>
<stop offset="1" stop-color="#003A7C"/>
</linearGradient>
<clipPath id="clip0_457_11409">
<rect x="15" y="17" width="18" height="14" rx="2" fill="white"/>
</clipPath>
</defs>
</svg>
