<svg width="48" height="48" viewBox="0 0 48 48" fill="none" xmlns="http://www.w3.org/2000/svg">
<circle cx="24" cy="24" r="23.75" stroke="url(#paint0_linear_457_11411)" stroke-width="0.5" stroke-dasharray="1 1"/>
<g clip-path="url(#clip0_457_11411)">
<path d="M31.1092 20.7227C31.1201 20.8802 31.1201 21.0377 31.1201 21.1966C31.1201 26.0399 27.433 31.6257 20.691 31.6257V31.6228C18.6994 31.6257 16.7491 31.0552 15.0725 29.9796C15.3621 30.0144 15.6532 30.0318 15.9449 30.0326C17.5954 30.034 19.1987 29.4802 20.4972 28.4605C18.9287 28.4307 17.5533 27.4081 17.0728 25.9151C17.6223 26.021 18.1884 25.9993 18.7277 25.8519C17.0177 25.5064 15.7874 24.004 15.7874 22.2592V22.2127C16.2969 22.4965 16.8674 22.654 17.451 22.6714C15.8404 21.5951 15.344 19.4525 16.3165 17.7773C18.1775 20.0673 20.9232 21.4593 23.8707 21.6067C23.5753 20.3336 23.9789 18.9996 24.9311 18.1047C26.4074 16.7169 28.7293 16.7881 30.117 18.2636C30.9379 18.1018 31.7247 17.8006 32.4447 17.3738C32.1711 18.2223 31.5984 18.943 30.8334 19.401C31.5599 19.3153 32.2698 19.1208 32.9382 18.8239C32.4461 19.5614 31.8263 20.2037 31.1092 20.7227Z" fill="url(#paint1_linear_457_11411)"/>
</g>
<defs>
<linearGradient id="paint0_linear_457_11411" x1="24" y1="0" x2="24" y2="48" gradientUnits="userSpaceOnUse">
<stop stop-color="#0A71EA"/>
<stop offset="1" stop-color="#003A7C"/>
</linearGradient>
<linearGradient id="paint1_linear_457_11411" x1="24.0054" y1="17.1087" x2="24.0054" y2="31.6257" gradientUnits="userSpaceOnUse">
<stop stop-color="#0A71EA"/>
<stop offset="1" stop-color="#003A7C"/>
</linearGradient>
<clipPath id="clip0_457_11411">
<rect width="18" height="14.8065" fill="white" transform="translate(15 17)"/>
</clipPath>
</defs>
</svg>
