<svg width="48" height="48" viewBox="0 0 48 48" fill="none" xmlns="http://www.w3.org/2000/svg">
<circle cx="24" cy="24" r="23.75" stroke="url(#paint0_linear_457_11410)" stroke-width="0.5" stroke-dasharray="1 1"/>
<path d="M17.1327 20.82H19.3727V30H17.1327V20.82ZM18.2327 19.1C17.8194 19.1 17.4727 18.96 17.1927 18.68C16.9127 18.4 16.7727 18.0533 16.7727 17.64C16.7727 17.2667 16.9127 16.9467 17.1927 16.68C17.4727 16.4133 17.8194 16.28 18.2327 16.28C18.6327 16.28 18.9727 16.4133 19.2527 16.68C19.5327 16.9467 19.6727 17.2667 19.6727 17.64C19.6727 18.0533 19.5327 18.4 19.2527 18.68C18.9861 18.96 18.6461 19.1 18.2327 19.1ZM22.3634 20.82H24.4834L24.5034 22.5C24.7567 21.94 25.1567 21.48 25.7034 21.12C26.25 20.76 26.89 20.58 27.6234 20.58C28.57 20.58 29.2967 20.78 29.8034 21.18C30.31 21.5667 30.65 22.1133 30.8234 22.82C30.9967 23.5267 31.0834 24.4467 31.0834 25.58V30H28.9234V25.64C28.9234 24.48 28.81 23.6467 28.5834 23.14C28.3567 22.62 27.89 22.36 27.1834 22.36C26.7834 22.36 26.3767 22.4867 25.9634 22.74C25.55 22.98 25.2034 23.3333 24.9234 23.8C24.6567 24.2667 24.5234 24.8133 24.5234 25.44V30H22.3634V20.82Z" fill="url(#paint1_linear_457_11410)"/>
<defs>
<linearGradient id="paint0_linear_457_11410" x1="24" y1="0" x2="24" y2="48" gradientUnits="userSpaceOnUse">
<stop stop-color="#0A71EA"/>
<stop offset="1" stop-color="#003A7C"/>
</linearGradient>
<linearGradient id="paint1_linear_457_11410" x1="24" y1="12" x2="24" y2="36" gradientUnits="userSpaceOnUse">
<stop stop-color="#0A71EA"/>
<stop offset="1" stop-color="#003A7C"/>
</linearGradient>
</defs>
</svg>
