<svg width="282" height="106" viewBox="0 0 282 106" fill="none" xmlns="http://www.w3.org/2000/svg">
<path d="M127.7 37.6202L110.666 61.857H119.164C121.577 61.857 123.317 61.3107 124.384 60.2183C125.197 59.3799 126.023 57.9572 126.861 55.9502C127.268 55.8994 127.662 55.8994 128.043 55.9502C127.763 57.5253 127.522 58.948 127.319 60.2183C127.116 61.4632 126.963 62.5556 126.861 63.4956C126.48 63.4956 125.299 63.4956 123.317 63.4956C121.361 63.4702 118.49 63.4575 114.705 63.4575C112.698 63.4575 111.11 63.4702 109.941 63.4956C108.773 63.4956 107.846 63.4956 107.16 63.4956C106.474 63.521 105.851 63.5337 105.292 63.5337C105.191 63.3051 105.14 63.051 105.14 62.7716L122.174 38.4586H113.867C111.936 38.4586 110.513 38.9032 109.598 39.7924C108.786 40.5799 108.087 41.8883 107.503 43.7175C107.096 43.7429 106.664 43.7429 106.207 43.7175C106.41 42.4472 106.588 41.2405 106.74 40.0972C106.893 38.954 107.02 37.8361 107.121 36.7437C108.773 36.8453 110.488 36.9089 112.266 36.9343C114.07 36.9343 115.975 36.9343 117.982 36.9343C120.04 36.9343 121.679 36.9343 122.898 36.9343C124.143 36.9089 125.121 36.8834 125.833 36.858C126.544 36.8326 127.116 36.8199 127.547 36.8199C127.598 36.9216 127.636 37.0486 127.662 37.201C127.687 37.328 127.7 37.4678 127.7 37.6202ZM143.791 63.8767C142.114 63.8767 141.06 63.0383 140.628 61.3616C138.824 63.0891 136.982 63.9529 135.102 63.9529C133.807 63.9529 132.702 63.5718 131.787 62.8097C130.898 62.0221 130.453 60.9424 130.453 59.5705C130.453 56.217 133.87 54.1083 140.704 53.2445C140.704 52.6348 140.704 52.0124 140.704 51.3772C140.73 50.7421 140.742 50.0688 140.742 49.3575C140.742 48.4683 140.412 47.7824 139.752 47.2997C139.116 46.7916 138.342 46.5375 137.427 46.5375C136.766 46.5375 136.207 46.6391 135.75 46.8424C135.75 47.4267 135.623 48.0237 135.369 48.6334C135.115 49.2432 134.759 49.764 134.302 50.1959C133.87 50.6024 133.337 50.8056 132.702 50.8056C132.143 50.8056 131.698 50.6532 131.368 50.3483C131.063 50.018 130.91 49.6243 130.91 49.167C130.91 48.5572 131.19 47.9856 131.749 47.4521C132.333 46.8932 133.07 46.4232 133.959 46.0421C134.848 45.6356 135.776 45.318 136.741 45.0894C137.706 44.8607 138.57 44.7464 139.332 44.7464C140.272 44.7464 141.136 44.9243 141.924 45.2799C142.737 45.6102 143.384 46.1183 143.867 46.8043C144.375 47.4648 144.629 48.2905 144.629 49.2813C144.629 49.891 144.617 50.6913 144.591 51.6821C144.566 52.6475 144.54 53.6891 144.515 54.807C144.515 55.8994 144.502 56.941 144.477 57.9318C144.452 58.9226 144.439 59.7229 144.439 60.3326C144.439 61.1456 144.794 61.5521 145.506 61.5521C145.963 61.5521 146.662 61.3997 147.602 61.0948C147.703 61.2218 147.767 61.3616 147.792 61.514C147.843 61.6664 147.881 61.8061 147.907 61.9332C147.272 62.6191 146.598 63.1145 145.887 63.4194C145.201 63.7243 144.502 63.8767 143.791 63.8767ZM140.628 60.3326L140.704 54.6164C138.367 54.9213 136.754 55.4167 135.864 56.1026C135.001 56.7886 134.569 57.6651 134.569 58.7321C134.569 59.6213 134.797 60.3072 135.255 60.7899C135.737 61.2472 136.334 61.4759 137.046 61.4759C137.503 61.4759 138.011 61.3743 138.57 61.171C139.154 60.9678 139.84 60.6883 140.628 60.3326ZM150.827 73.2132C150.141 73.2132 149.608 73.0099 149.226 72.6034C148.871 72.2224 148.693 71.7651 148.693 71.2316C148.693 70.5202 149.074 69.8216 149.836 69.1356C150.598 68.4751 151.843 68.1448 153.571 68.1448C153.901 67.5605 154.219 66.9253 154.523 66.2394C154.854 65.5788 155.235 64.7532 155.667 63.7624C155.387 63.051 155.032 62.1364 154.6 61.0186C154.168 59.9007 153.672 58.6686 153.113 57.3221C152.58 55.9502 152.034 54.5402 151.475 53.0921C150.916 51.6186 150.37 50.1959 149.836 48.824C149.531 48.011 149.188 47.4521 148.807 47.1472C148.452 46.8424 147.753 46.6391 146.711 46.5375C146.635 46.1818 146.635 45.788 146.711 45.3561C147.448 45.3561 148.198 45.3688 148.96 45.3943C149.722 45.4197 150.509 45.4324 151.322 45.4324C152.059 45.4324 152.859 45.4197 153.723 45.3943C154.587 45.3688 155.324 45.3561 155.933 45.3561C155.984 45.7372 155.984 46.131 155.933 46.5375C155.07 46.5883 154.46 46.6772 154.104 46.8043C153.774 46.9313 153.609 47.1853 153.609 47.5664C153.609 47.9221 153.736 48.4683 153.99 49.2051C154.651 51.0088 155.286 52.6729 155.895 54.1972C156.531 55.7216 157.166 57.284 157.801 58.8845C158.614 57.0299 159.325 55.3659 159.935 53.8924C160.57 52.4188 161.205 50.8818 161.84 49.2813C162.12 48.5445 162.259 47.9983 162.259 47.6426C162.259 47.287 162.069 47.0329 161.688 46.8805C161.307 46.728 160.633 46.6137 159.668 46.5375C159.592 46.131 159.592 45.7372 159.668 45.3561C160.303 45.3561 160.951 45.3688 161.612 45.3943C162.298 45.4197 163.022 45.4324 163.784 45.4324C164.292 45.4324 164.838 45.4197 165.422 45.3943C166.032 45.3688 166.578 45.3561 167.061 45.3561C167.137 45.7372 167.137 46.131 167.061 46.5375C165.994 46.6137 165.27 46.8551 164.889 47.2616C164.508 47.6426 164.152 48.227 163.822 49.0145L157.305 64.2197C157.178 64.5245 156.95 65.0326 156.619 65.744C156.289 66.4807 155.933 67.2302 155.552 67.9924C155.197 68.7799 154.892 69.4278 154.638 69.9359C154.003 71.1807 153.38 72.0318 152.771 72.4891C152.161 72.9718 151.513 73.2132 150.827 73.2132ZM179.218 63.5337C179.168 63.1272 179.168 62.7334 179.218 62.3524C180.006 62.3016 180.59 62.2253 180.971 62.1237C181.352 61.9967 181.607 61.7426 181.734 61.3616C181.861 60.9805 181.924 60.3707 181.924 59.5324V51.8345C181.924 50.3102 181.683 49.1797 181.2 48.4429C180.743 47.6807 179.815 47.2997 178.418 47.2997C177.681 47.2997 176.97 47.4394 176.284 47.7188C175.598 47.9729 174.849 48.4683 174.036 49.2051V59.1513C174.036 60.1421 174.087 60.8534 174.188 61.2853C174.315 61.7172 174.569 61.9967 174.95 62.1237C175.331 62.2253 175.928 62.3016 176.741 62.3524C176.792 62.7334 176.792 63.1272 176.741 63.5337C176.03 63.5337 175.281 63.521 174.493 63.4956C173.731 63.4702 172.905 63.4575 172.016 63.4575C171.203 63.4575 170.403 63.4702 169.615 63.4956C168.828 63.521 168.053 63.5337 167.291 63.5337C167.214 63.1272 167.214 62.7334 167.291 62.3524C168.154 62.3016 168.79 62.2253 169.196 62.1237C169.602 61.9967 169.869 61.7426 169.996 61.3616C170.123 60.9805 170.187 60.3707 170.187 59.5324V50.9961C170.187 50.0053 170.136 49.2686 170.034 48.7859C169.958 48.3032 169.717 47.9729 169.31 47.7951C168.929 47.5918 168.269 47.4267 167.329 47.2997C167.252 46.944 167.252 46.6137 167.329 46.3088C169.514 45.877 171.521 45.2926 173.35 44.5559L173.998 44.7845V47.6426C175.166 46.5756 176.31 45.8261 177.427 45.3943C178.545 44.9624 179.612 44.7464 180.628 44.7464C182.305 44.7464 183.588 45.2418 184.477 46.2326C185.367 47.2234 185.811 48.6461 185.811 50.5007V59.1513C185.811 60.1421 185.862 60.8534 185.964 61.2853C186.091 61.7172 186.345 61.9967 186.726 62.1237C187.107 62.2253 187.717 62.3016 188.555 62.3524C188.606 62.7334 188.606 63.1272 188.555 63.5337C187.793 63.5337 187.043 63.521 186.307 63.4956C185.595 63.4702 184.757 63.4575 183.791 63.4575C182.851 63.4575 182.026 63.4702 181.314 63.4956C180.628 63.521 179.93 63.5337 179.218 63.5337ZM199.932 63.9529C198.077 63.9529 196.451 63.5591 195.054 62.7716C193.682 61.9586 192.615 60.8534 191.853 59.4561C191.091 58.0334 190.71 56.4075 190.71 54.5783C190.71 52.5967 191.103 50.8691 191.891 49.3956C192.704 47.9221 193.834 46.7788 195.282 45.9659C196.731 45.1529 198.395 44.7464 200.275 44.7464C202.129 44.7464 203.742 45.1529 205.114 45.9659C206.486 46.7788 207.553 47.8967 208.315 49.3194C209.078 50.7421 209.459 52.3553 209.459 54.1591C209.459 56.0137 209.052 57.6905 208.239 59.1894C207.452 60.6629 206.347 61.8316 204.924 62.6953C203.501 63.5337 201.837 63.9529 199.932 63.9529ZM195.016 54.121C195.016 56.7124 195.435 58.7702 196.273 60.2945C197.137 61.7934 198.42 62.5429 200.122 62.5429C201.748 62.5429 202.993 61.8316 203.857 60.4088C204.721 58.9607 205.152 57.0299 205.152 54.6164C205.152 52.0505 204.721 50.0053 203.857 48.481C202.993 46.9567 201.735 46.1945 200.084 46.1945C198.458 46.1945 197.201 46.8932 196.311 48.2905C195.448 49.6878 195.016 51.6313 195.016 54.121ZM212.023 63.5337C211.947 63.1272 211.947 62.7334 212.023 62.3524C212.887 62.3016 213.522 62.2253 213.928 62.1237C214.335 61.9967 214.602 61.7426 214.729 61.3616C214.856 60.9805 214.919 60.3707 214.919 59.5324V50.9961C214.919 50.0053 214.868 49.2686 214.767 48.7859C214.691 48.3032 214.449 47.9729 214.043 47.7951C213.662 47.5918 213.001 47.4267 212.061 47.2997C211.985 46.944 211.985 46.6137 212.061 46.3088C213.077 46.1056 214.068 45.877 215.033 45.6229C215.999 45.3434 217.015 44.9878 218.082 44.5559L218.73 44.7845V48.138C220.508 45.877 222.325 44.7464 224.179 44.7464C225.069 44.7464 225.729 44.9878 226.161 45.4705C226.593 45.9278 226.809 46.4486 226.809 47.0329C226.809 47.7188 226.58 48.2524 226.123 48.6334C225.666 48.9891 225.145 49.167 224.561 49.167C224.078 49.167 223.595 49.0399 223.112 48.7859C222.655 48.5318 222.312 48.138 222.083 47.6045C221.22 47.6045 220.445 47.9475 219.759 48.6334C219.098 49.294 218.768 50.0688 218.768 50.958V59.1513C218.768 60.1421 218.819 60.8534 218.921 61.2853C219.048 61.7172 219.352 61.9967 219.835 62.1237C220.343 62.2253 221.156 62.3016 222.274 62.3524C222.325 62.708 222.325 63.1018 222.274 63.5337C221.41 63.5337 220.521 63.521 219.606 63.4956C218.692 63.4702 217.752 63.4575 216.786 63.4575C215.846 63.4575 215.008 63.4702 214.271 63.4956C213.56 63.521 212.811 63.5337 212.023 63.5337ZM234.97 63.9529C233.446 63.9529 232.239 63.5972 231.35 62.8859C230.461 62.1491 230.016 61.0948 230.016 59.7229C230.016 57.4872 230.029 55.3278 230.054 53.2445C230.105 51.1613 230.143 49.1543 230.168 47.2234H227.272C227.196 46.8424 227.196 46.4994 227.272 46.1945C229.787 45.1275 231.68 43.3872 232.95 40.9737C233.154 40.9737 233.357 40.9864 233.56 41.0118C233.763 41.0118 233.941 41.0245 234.094 41.0499C234.068 41.7105 234.043 42.4091 234.017 43.1459C234.017 43.8826 234.005 44.6575 233.979 45.4705H239.772C239.848 46.0294 239.848 46.6137 239.772 47.2234H233.979C233.928 49.0018 233.89 50.8818 233.865 52.8634C233.865 54.8197 233.865 56.7886 233.865 58.7702C233.865 60.828 234.932 61.857 237.066 61.857C237.981 61.857 238.832 61.6156 239.619 61.1329C239.848 61.4378 239.988 61.8188 240.038 62.2761C238.539 63.394 236.85 63.9529 234.97 63.9529ZM253.121 63.5337C253.07 63.1272 253.07 62.7334 253.121 62.3524C253.909 62.3016 254.493 62.2253 254.874 62.1237C255.255 61.9967 255.509 61.7426 255.636 61.3616C255.763 60.9805 255.827 60.3707 255.827 59.5324V51.8345C255.827 50.3102 255.585 49.1797 255.103 48.4429C254.645 47.6807 253.718 47.2997 252.321 47.2997C251.584 47.2997 250.873 47.4394 250.187 47.7188C249.501 47.9729 248.764 48.4556 247.976 49.167V59.1513C247.976 60.1421 248.027 60.8534 248.129 61.2853C248.256 61.7172 248.497 61.9967 248.853 62.1237C249.234 62.2253 249.818 62.3016 250.606 62.3524C250.733 62.7334 250.733 63.1272 250.606 63.5337C249.971 63.5337 249.272 63.521 248.51 63.4956C247.748 63.4702 246.897 63.4575 245.957 63.4575C245.017 63.4575 244.178 63.4702 243.442 63.4956C242.705 63.521 241.955 63.5337 241.193 63.5337C241.117 63.1272 241.117 62.7334 241.193 62.3524C242.057 62.3016 242.692 62.2253 243.099 62.1237C243.505 61.9967 243.772 61.7426 243.899 61.3616C244.026 60.9805 244.089 60.3707 244.089 59.5324V41.1643C244.089 40.4275 244.077 39.8432 244.051 39.4113C244.026 38.954 243.912 38.5983 243.708 38.3443C243.505 38.0648 243.213 37.8743 242.832 37.7726C242.451 37.6456 241.841 37.544 241.003 37.4678C240.926 37.1375 240.926 36.7945 241.003 36.4388C242.019 36.3118 243.048 36.1213 244.089 35.8672C245.131 35.5878 246.236 35.2067 247.405 34.724L248.053 34.9526C248.027 35.5116 248.002 36.1467 247.976 36.858C247.976 37.544 247.976 38.3061 247.976 39.1445V47.6045C249.12 46.5375 250.238 45.8007 251.33 45.3943C252.448 44.9624 253.515 44.7464 254.531 44.7464C256.208 44.7464 257.491 45.2418 258.38 46.2326C259.269 47.2234 259.714 48.6461 259.714 50.5007V59.1513C259.714 60.1421 259.765 60.8534 259.866 61.2853C259.993 61.7172 260.247 61.9967 260.628 62.1237C261.009 62.2253 261.619 62.3016 262.458 62.3524C262.508 62.7334 262.508 63.1272 262.458 63.5337C261.695 63.5337 260.946 63.521 260.209 63.4956C259.498 63.4702 258.659 63.4575 257.694 63.4575C256.754 63.4575 255.928 63.4702 255.217 63.4956C254.531 63.521 253.832 63.5337 253.121 63.5337Z" fill="white"/>
<path fill-rule="evenodd" clip-rule="evenodd" d="M33.2882 44.744L52.5191 18.1108L71.75 44.744L52.5191 32.638L33.2882 44.744ZM52.5195 44.744C55.1747 44.744 57.3272 42.7567 57.3272 40.3052C57.3272 37.8537 55.1747 35.8663 52.5195 35.8663C49.8643 35.8663 47.7118 37.8537 47.7118 40.3052C47.7118 42.7567 49.8643 44.744 52.5195 44.744Z" fill="#FF0087"/>
<path fill-rule="evenodd" clip-rule="evenodd" d="M47.0069 79.1655L12.998 72.862L32.5871 46.3421L27.6156 67.3484L47.0069 79.1655ZM39.7678 62.7768C38.7728 60.5119 35.9676 59.4297 33.5022 60.3597C31.0368 61.2897 29.8447 63.8797 30.8396 66.1446C31.8346 68.4095 34.6398 69.4916 37.1052 68.5616C39.5706 67.6317 40.7627 65.0417 39.7678 62.7768Z" fill="#00803F"/>
<path fill-rule="evenodd" clip-rule="evenodd" d="M72.1318 46.342L91.7207 72.8621L57.7119 79.1655L77.1031 67.3485L72.1318 46.342ZM64.951 62.7766C63.956 65.0415 65.1481 67.6314 67.6135 68.5614C70.079 69.4914 72.8842 68.4093 73.8791 66.1444C74.8741 63.8795 73.682 61.2895 71.2166 60.3595C68.7511 59.4295 65.9459 60.5117 64.951 62.7766Z" fill="#0101BE"/>
</svg>
